<?xml version="1.0" encoding="UTF-8" standalone="no"?>
<svg width="264px" height="66px" viewBox="0 0 264 66" version="1.1" xmlns="http://www.w3.org/2000/svg" xmlns:xlink="http://www.w3.org/1999/xlink">
    <!-- Generator: Sketch 3.6.1 (26313) - http://www.bohemiancoding.com/sketch -->
    <title>logo_svg (1)</title>
    <desc>Created with Sketch.</desc>
    <defs></defs>
    <g id="Page-1" stroke="none" stroke-width="1" fill="none" fill-rule="evenodd">
        <g id="logo_svg-(1)" fill="#000000">
            <g id="text3769">
                <path d="M31.222951,54.42783 L18.261281,31.96299 L5.301808,54.42783 L0.981984,54.42783 L16.101369,28.218849 L13.222951,23.250832 L13.222951,23.250832 L3.141896,5.756203 L0.839162,1.72422 L5.158986,1.72422 L17.613088,23.250832 L18.261281,24.404396 L18.909474,23.323341 L28.84551,6.116554 L31.365773,1.72422 L35.758107,1.72422 L23.301808,23.250832 L23.301808,23.250832 L20.493703,28.218849 L35.613088,54.42783 L31.222951,54.42783 Z" id="path3988"></path>
                <path d="M80.03301,36.42783 C80.032968,39.01916 79.540781,41.45482 78.556447,43.73484 C77.572033,46.01488 76.22804,48.00706 74.524465,49.7114 C72.820817,51.41575 70.828997,52.75974 68.549001,53.74339 C66.268943,54.72703 63.832544,55.21885 61.239797,55.21885 C58.648467,55.21885 56.200716,54.72703 53.896535,53.74339 C51.592322,52.75974 49.588418,51.41575 47.884816,49.7114 C46.181195,48.00706 44.837202,46.01488 43.852834,43.73484 C42.868454,41.45482 42.376267,39.01916 42.376271,36.42783 L42.376271,19.867043 C42.376267,17.275771 42.868454,14.840105 43.852834,12.560036 C44.837202,10.280051 46.181195,8.287865 47.884816,6.583473 C49.588418,4.879177 51.592322,3.535184 53.896535,2.551491 C56.200716,1.567901 58.648467,1.07608 61.239797,1.076027 C63.832544,1.07608 66.268943,1.567901 68.549001,2.551491 C70.828997,3.535184 72.820817,4.879177 74.524465,6.583473 C76.22804,8.287865 77.572033,10.280051 78.556447,12.560036 C79.540781,14.840105 80.032968,17.275771 80.03301,19.867043 L80.03301,36.42783 Z M76.288869,19.867043 C76.288831,17.803114 75.892591,15.859269 75.100148,14.0355 C74.307631,12.211811 73.227677,10.615866 71.86028,9.247658 C70.492816,7.87954 68.89687,6.799585 67.072438,6.00779 C65.247948,5.216091 63.303736,4.820217 61.239797,4.820168 C59.128936,4.820217 57.161286,5.216091 55.336843,6.00779 C53.512364,6.799585 51.928137,7.87954 50.584157,9.247658 C49.240152,10.615866 48.172282,12.211811 47.380544,14.0355 C46.588787,15.859269 46.192914,17.803114 46.192922,19.867043 L46.192922,36.42783 C46.192914,38.49181 46.588787,40.43566 47.380544,42.25938 C48.172282,44.08312 49.240152,45.67906 50.584157,47.04722 C51.928137,48.41539 53.512364,49.49571 55.336843,50.28819 C57.161286,51.08067 59.128936,51.47691 61.239797,51.47691 C63.303736,51.47691 65.247948,51.08067 67.072438,50.28819 C68.89687,49.49571 70.492816,48.41539 71.86028,47.04722 C73.227677,45.67906 74.307631,44.08312 75.100148,42.25938 C75.892591,40.43566 76.288831,38.49181 76.288869,36.42783 L76.288869,19.867043 Z" id="path3990"></path>
                <path d="M103.71953,5.756203 L103.71953,54.42783 L99.90508,54.42783 L99.90508,5.756203 L84.352834,5.756203 L84.352834,2.012062 L119.27178,2.012062 L119.27178,5.756203 L103.71953,5.756203 Z" id="path3992"></path>
                <path d="M126.01958,1.72422 L129.76372,1.72422 L129.76372,54.42783 L126.01958,54.42783 L126.01958,1.72422 Z" id="path3994"></path>
                <path d="M177.3521,36.28281 C177.35206,38.68371 176.93202,40.93993 176.09197,43.05149 C175.25184,45.16307 174.09974,47.04686 172.63567,48.70286 C171.17152,50.35887 169.44338,51.73912 167.45122,52.84361 C165.459,53.9481 163.31081,54.6439 161.00664,54.93101 C161.77566,56.94809 163.02407,58.58066 164.75188,59.82871 C166.47963,61.07675 168.47145,61.70078 170.72735,61.70078 L170.72735,65.44492 C169.09548,65.44491 167.5475,65.18087 166.08342,64.65281 C164.61928,64.12472 163.29946,63.40439 162.12395,62.4918 C160.94839,61.57919 159.92849,60.48715 159.06426,59.21568 C158.19998,57.94419 157.55179,56.56431 157.11968,55.07603 C154.67191,54.88413 152.39188,54.27219 150.27959,53.24021 C148.16727,52.20823 146.33109,50.84007 144.77105,49.13572 C143.21098,47.43138 141.97502,45.48717 141.06316,43.30308 C140.15129,41.11901 139.69536,38.77892 139.69536,36.28281 L139.69536,19.72422 C139.69536,17.131484 140.18755,14.695085 141.17193,12.415016 C142.15629,10.135031 143.50029,8.143212 145.20391,6.439552 C146.90751,4.735989 148.89933,3.391996 151.17937,2.40757 C153.45938,1.423248 155.89578,0.931061 158.48858,0.931007 C161.07986,0.931061 163.52761,1.423248 165.83184,2.40757 C168.136,3.391996 170.13991,4.735989 171.84356,6.439552 C173.54713,8.143212 174.89112,10.135031 175.87554,12.415016 C176.85987,14.695085 177.35206,17.131484 177.3521,19.72422 L177.3521,36.28281 Z M173.53545,19.72422 C173.53541,17.660292 173.13954,15.71608 172.34783,13.891579 C171.55604,12.067158 170.48817,10.471212 169.14422,9.103737 C167.80019,7.736352 166.20424,6.656397 164.35637,5.863869 C162.50845,5.071438 160.55252,4.675198 158.48858,4.675148 C156.42459,4.675198 154.48038,5.071438 152.65593,5.863869 C150.83146,6.656397 149.23514,7.736352 147.86699,9.103737 C146.49882,10.471212 145.41886,12.067158 144.62713,13.891579 C143.83537,15.71608 143.4395,17.660292 143.4395,19.72422 L143.4395,36.28281 C143.4395,38.34679 143.83537,40.29101 144.62713,42.11546 C145.41886,43.93993 146.49882,45.53624 147.86699,46.9044 C149.23514,48.27257 150.83146,49.35252 152.65593,50.14426 C154.48038,50.93602 156.42459,51.33189 158.48858,51.33189 C160.55252,51.33189 162.50845,50.93602 164.35637,50.14426 C166.20424,49.35252 167.80019,48.27257 169.14422,46.9044 C170.48817,45.53624 171.55604,43.93993 172.34783,42.11546 C173.13954,40.29101 173.53541,38.34679 173.53545,36.28281 L173.53545,19.72422 Z" id="path3996"></path>
                <path d="M224.18023,36.2125 C224.18018,38.80383 223.688,41.23949 222.70366,43.51951 C221.71925,45.79955 220.37526,47.79173 218.67168,49.49607 C216.96803,51.20042 214.97621,52.54441 212.69622,53.52805 C210.41616,54.5117 207.97976,55.00352 205.38701,55.00352 C202.79568,55.00352 200.34793,54.5117 198.04375,53.52805 C195.73954,52.54441 193.73563,51.20042 192.03203,49.49607 C190.32841,47.79173 188.98442,45.79955 188.00005,43.51951 C187.01567,41.23949 186.52348,38.80383 186.52349,36.2125 L186.52349,1.72422 L190.34014,1.72422 L190.34014,36.2125 C190.34013,38.27648 190.736,40.22033 191.52776,42.04404 C192.3195,43.86779 193.38737,45.46373 194.73137,46.83189 C196.07535,48.20006 197.65958,49.28001 199.48406,50.07175 C201.3085,50.86351 203.27615,51.25938 205.38701,51.25938 C207.45095,51.25938 209.39516,50.86351 211.21966,50.07175 C213.04409,49.28001 214.6404,48.20006 216.0086,46.83189 C217.37672,45.46373 218.45668,43.86779 219.24846,42.04404 C220.04017,40.22033 220.43605,38.27648 220.43609,36.2125 L220.43609,1.72422 L224.18023,1.72422 L224.18023,36.2125 Z" id="path3998"></path>
                <path d="M235.40625,1.71875 L235.40625,5.53125 L263.21875,5.53125 L263.21875,1.71875 L235.40625,1.71875 Z M235.40625,26.21875 L235.40625,30.03125 L263.27277,30.03125 L263.17587,26.21875 L235.40625,26.21875 Z M235.40625,50.6875 L235.40625,54.4375 L263.21875,54.4375 L263.21875,50.6875 L250.05039,50.6875 L235.40625,50.6875 Z" id="path4000"></path>
            </g>
        </g>
    </g>
</svg>