<?xml version="1.0" encoding="UTF-8" standalone="no"?>
<!-- Created with Inkscape (http://www.inkscape.org/) -->

<svg
   xmlns:dc="http://purl.org/dc/elements/1.1/"
   xmlns:cc="http://creativecommons.org/ns#"
   xmlns:rdf="http://www.w3.org/1999/02/22-rdf-syntax-ns#"
   xmlns:svg="http://www.w3.org/2000/svg"
   xmlns="http://www.w3.org/2000/svg"
   version="1.1"
   width="300"
   height="200"
   id="svg2985">
  <metadata
     id="metadata2991">
    <rdf:RDF>
      <cc:Work
         rdf:about="">
        <dc:format>image/svg+xml</dc:format>
        <dc:type
           rdf:resource="http://purl.org/dc/dcmitype/StillImage" />
        <dc:title></dc:title>
      </cc:Work>
    </rdf:RDF>
  </metadata>
  <defs
     id="defs2989" />
  <text
     x="80.426353"
     y="45.155041"
     id="text3765"
     xml:space="preserve"
     style="font-size:40px;font-style:normal;font-variant:normal;font-weight:normal;font-stretch:normal;line-height:125%;letter-spacing:0px;word-spacing:0px;fill:#000000;fill-opacity:1;stroke:none;font-family:Adobe Garamond Pro;-inkscape-font-specification:Adobe Garamond Pro"><tspan
       x="80.426353"
       y="45.155041"
       id="tspan3767" /></text>
  <g
     id="text3769"
     style="font-size:40px;font-style:normal;font-variant:normal;font-weight:normal;font-stretch:normal;line-height:125%;letter-spacing:0px;word-spacing:0px;fill:#000000;fill-opacity:1;stroke:none;font-family:TimeBurner;-inkscape-font-specification:TimeBurner">
    <path
       d="m 45.222951,123.42783 -12.96167,-22.46484 -12.959473,22.46484 -4.319824,0 15.119385,-26.208981 -2.878418,-4.968017 0,0 -10.081055,-17.494629 -2.302734,-4.031983 4.319824,0 12.454102,21.526612 0.648193,1.153564 0.648193,-1.081055 9.936036,-17.206787 2.520263,-4.392334 4.392334,0 -12.456299,21.526612 0,0 -2.808105,4.968017 15.119385,26.208981 z"
       id="path3988"
       style="font-size:72px;line-height:125%" />
    <path
       d="m 94.03301,105.42783 c -4.2e-5,2.59133 -0.492229,5.02699 -1.476563,7.30701 -0.984414,2.28004 -2.328407,4.27222 -4.031982,5.97656 -1.703648,1.70435 -3.695468,3.04834 -5.975464,4.03199 -2.280058,0.98364 -4.716457,1.47546 -7.309204,1.47546 -2.59133,0 -5.039081,-0.49182 -7.343262,-1.47546 -2.304213,-0.98365 -4.308117,-2.32764 -6.011719,-4.03199 -1.703621,-1.70434 -3.047614,-3.69652 -4.031982,-5.97656 -0.98438,-2.28002 -1.476567,-4.71568 -1.476563,-7.30701 l 0,-16.560787 c -4e-6,-2.591272 0.492183,-5.026938 1.476563,-7.307007 0.984368,-2.279985 2.328361,-4.272171 4.031982,-5.976563 1.703602,-1.704296 3.707506,-3.048289 6.011719,-4.031982 2.304181,-0.98359 4.751932,-1.475411 7.343262,-1.475464 2.592747,5.3e-5 5.029146,0.491874 7.309204,1.475464 2.279996,0.983693 4.271816,2.327686 5.975464,4.031982 1.703575,1.704392 3.047568,3.696578 4.031982,5.976563 0.984334,2.280069 1.476521,4.715735 1.476563,7.307007 z M 90.288869,88.867043 C 90.288831,86.803114 89.892591,84.859269 89.100148,83.0355 88.307631,81.211811 87.227677,79.615866 85.86028,78.247658 84.492816,76.87954 82.89687,75.799585 81.072438,75.00779 c -1.82449,-0.791699 -3.768702,-1.187573 -5.832641,-1.187622 -2.110861,4.9e-5 -4.078511,0.395923 -5.902954,1.187622 -1.824479,0.791795 -3.408706,1.87175 -4.752686,3.239868 -1.344005,1.368208 -2.411875,2.964153 -3.203613,4.787842 -0.791757,1.823769 -1.18763,3.767614 -1.187622,5.831543 l 0,16.560787 c -8e-6,2.06398 0.395865,4.00783 1.187622,5.83155 0.791738,1.82374 1.859608,3.41968 3.203613,4.78784 1.34398,1.36817 2.928207,2.44849 4.752686,3.24097 1.824443,0.79248 3.792093,1.18872 5.902954,1.18872 2.063939,0 4.008151,-0.39624 5.832641,-1.18872 1.824432,-0.79248 3.420378,-1.8728 4.787842,-3.24097 1.367397,-1.36816 2.447351,-2.9641 3.239868,-4.78784 0.792443,-1.82372 1.188683,-3.76757 1.188721,-5.83155 z"
       id="path3990"
       style="font-size:72px;line-height:125%" />
    <path
       d="m 117.71953,74.756203 0,48.671627 -3.81445,0 0,-48.671627 -15.552246,0 0,-3.744141 34.918946,0 0,3.744141 z"
       id="path3992"
       style="font-size:72px;line-height:125%" />
    <path
       d="m 140.01958,70.72422 3.74414,0 0,52.70361 -3.74414,0 z"
       id="path3994"
       style="font-size:72px;line-height:125%" />
    <path
       d="m 191.3521,105.28281 c -4e-5,2.4009 -0.42008,4.65712 -1.26013,6.76868 -0.84013,2.11158 -1.99223,3.99537 -3.4563,5.65137 -1.46415,1.65601 -3.19229,3.03626 -5.18445,4.14075 -1.99222,1.10449 -4.14041,1.80029 -6.44458,2.0874 0.76902,2.01708 2.01743,3.64965 3.74524,4.8977 1.72775,1.24804 3.71957,1.87207 5.97547,1.87207 l 0,3.74414 c -1.63187,-1e-5 -3.17985,-0.26405 -4.64393,-0.79211 -1.46414,-0.52809 -2.78396,-1.24842 -3.95947,-2.16101 -1.17556,-0.91261 -2.19546,-2.00465 -3.05969,-3.27612 -0.86428,-1.27149 -1.51247,-2.65137 -1.94458,-4.13965 -2.44777,-0.1919 -4.7278,-0.80384 -6.84009,-1.83582 -2.11232,-1.03198 -3.9485,-2.40014 -5.50854,-4.10449 -1.56007,-1.70434 -2.79603,-3.64855 -3.70789,-5.83264 -0.91187,-2.18407 -1.3678,-4.52416 -1.3678,-7.02027 l 0,-16.55859 c 0,-2.592736 0.49219,-5.029135 1.47657,-7.309204 0.98436,-2.279985 2.32836,-4.271804 4.03198,-5.975464 1.7036,-1.703563 3.69542,-3.047556 5.97546,-4.031982 2.28001,-0.984322 4.71641,-1.476509 7.30921,-1.476563 2.59128,5.4e-5 5.03903,0.492241 7.34326,1.476563 2.30416,0.984426 4.30807,2.328419 6.01172,4.031982 1.70357,1.70366 3.04756,3.695479 4.03198,5.975464 0.98433,2.280069 1.47652,4.716468 1.47656,7.309204 z m -3.81665,-16.55859 c -4e-5,-2.063928 -0.39591,-4.00814 -1.18762,-5.832641 -0.79179,-1.824421 -1.85966,-3.420367 -3.20361,-4.787842 -1.34403,-1.367385 -2.93998,-2.44734 -4.78785,-3.239868 -1.84792,-0.792431 -3.80385,-1.188671 -5.86779,-1.188721 -2.06399,5e-5 -4.0082,0.39629 -5.83265,1.188721 -1.82447,0.792528 -3.42079,1.872483 -4.78894,3.239868 -1.36817,1.367475 -2.44813,2.963421 -3.23986,4.787842 -0.79176,1.824501 -1.18763,3.768713 -1.18763,5.832641 l 0,16.55859 c 0,2.06398 0.39587,4.0082 1.18763,5.83265 0.79173,1.82447 1.87169,3.42078 3.23986,4.78894 1.36815,1.36817 2.96447,2.44812 4.78894,3.23986 1.82445,0.79176 3.76866,1.18763 5.83265,1.18763 2.06394,0 4.01987,-0.39587 5.86779,-1.18763 1.84787,-0.79174 3.44382,-1.87169 4.78785,-3.23986 1.34395,-1.36816 2.41182,-2.96447 3.20361,-4.78894 0.79171,-1.82445 1.18758,-3.76867 1.18762,-5.83265 z"
       id="path3996"
       style="font-size:72px;line-height:125%" />
    <path
       d="m 238.18023,105.2125 c -5e-5,2.59133 -0.49223,5.02699 -1.47657,7.30701 -0.98441,2.28004 -2.3284,4.27222 -4.03198,5.97656 -1.70365,1.70435 -3.69547,3.04834 -5.97546,4.03198 -2.28006,0.98365 -4.71646,1.47547 -7.30921,1.47547 -2.59133,0 -5.03908,-0.49182 -7.34326,-1.47547 -2.30421,-0.98364 -4.30812,-2.32763 -6.01172,-4.03198 -1.70362,-1.70434 -3.04761,-3.69652 -4.03198,-5.97656 -0.98438,-2.28002 -1.47657,-4.71568 -1.47656,-7.30701 l 0,-34.48828 3.81665,0 0,34.48828 c -1e-5,2.06398 0.39586,4.00783 1.18762,5.83154 0.79174,1.82375 1.85961,3.41969 3.20361,4.78785 1.34398,1.36817 2.92821,2.44812 4.75269,3.23986 1.82444,0.79176 3.79209,1.18763 5.90295,1.18763 2.06394,0 4.00815,-0.39587 5.83265,-1.18763 1.82443,-0.79174 3.42074,-1.87169 4.78894,-3.23986 1.36812,-1.36816 2.44808,-2.9641 3.23986,-4.78785 0.79171,-1.82371 1.18759,-3.76756 1.18763,-5.83154 l 0,-34.48828 3.74414,0 z"
       id="path3998"
       style="font-size:72px;line-height:125%" />
    <path
       d="m 249.40625,70.71875 0,3.8125 27.8125,0 0,-3.8125 z m 0,24.5 0,3.8125 27.86652,0 -0.0969,-3.8125 z m 0,24.46875 0,3.75 27.8125,0 0,-3.75 -13.16836,0 z"
       id="path4000"
       style="font-size:72px;line-height:125%" />
  </g>
</svg>
